<svg xmlns="http://www.w3.org/2000/svg" width="120" height="120" viewBox="0 0 120 120">
  <rect width="120" height="120" fill="#0f1117"/>
  <!-- 캔들 (고가 위를 달림) -->
  <g stroke-linecap="round">
    <line x1="20" y1="62" x2="20" y2="96" stroke="#3a4255" stroke-width="2"/>
    <rect x="15" y="70" width="10" height="18" fill="#26a69a"/>
    <line x1="42" y1="50" x2="42" y2="92" stroke="#3a4255" stroke-width="2"/>
    <rect x="37" y="58" width="10" height="22" fill="#ef5350"/>
    <line x1="64" y1="44" x2="64" y2="88" stroke="#3a4255" stroke-width="2"/>
    <rect x="59" y="52" width="10" height="20" fill="#26a69a"/>
    <line x1="86" y1="40" x2="86" y2="90" stroke="#3a4255" stroke-width="2"/>
    <rect x="81" y="48" width="10" height="24" fill="#26a69a"/>
    <line x1="106" y1="56" x2="106" y2="98" stroke="#3a4255" stroke-width="2"/>
    <rect x="101" y="64" width="10" height="20" fill="#ef5350"/>
  </g>
  <!-- 달리는 고양이 (측면) -->
  <g fill="#e5e7eb" stroke="#e5e7eb" stroke-linecap="round" stroke-linejoin="round">
    <!-- 꼬리 -->
    <path d="M38 50 Q24 40 30 24" fill="none" stroke-width="5"/>
    <!-- 몸통 -->
    <ellipse cx="58" cy="50" rx="24" ry="12" transform="rotate(-5 58 50)"/>
    <!-- 머리 -->
    <circle cx="84" cy="44" r="12"/>
    <!-- 귀 -->
    <path d="M75 36 L79 22 L86 35 Z"/>
    <path d="M86 35 L93 22 L97 37 Z"/>
    <!-- 눈 -->
    <circle cx="84" cy="44" r="4" fill="#1a1a2e" stroke="none"/>
    <circle cx="92" cy="43" r="4" fill="#1a1a2e" stroke="none"/>
    <!-- 앞발 (앞으로 뻗음) -->
    <path d="M74 58 Q86 66 92 74" fill="none" stroke-width="6"/>
    <circle cx="93" cy="75" r="4.5"/>
    <path d="M66 60 Q76 70 80 78" fill="none" stroke-width="6"/>
    <circle cx="81" cy="79" r="4.5"/>
    <!-- 뒷발 (뒤로 뻗음) -->
    <path d="M46 58 Q36 68 32 76" fill="none" stroke-width="6"/>
    <circle cx="31" cy="77" r="4.5"/>
    <path d="M54 60 Q50 70 50 78" fill="none" stroke-width="6"/>
    <circle cx="50" cy="79" r="4.5"/>
  </g>
</svg>
